{
  "accessors": [
    {
      "bufferView": 2,
      "componentType": 5126,
      "count": 1070,
      "max": [
        1126.30224609375,
        333.7857360839844,
        1600.3563232421875
      ],
      "min": [
        -1176.3681640625,
        -3663.817626953125,
        -1783.5609130859375
      ],
      "type": "VEC3"
    },
    {
      "bufferView": 2,
      "byteOffset": 12840,
      "componentType": 5126,
      "count": 1070,
      "max": [
        1.0,
        1.0,
        1.0
      ],
      "min": [
        -1.0,
        -0.9970705509185791,
        -1.0
      ],
      "type": "VEC3"
    },
    {
      "bufferView": 1,
      "componentType": 5126,
      "count": 1070,
      "max": [
        1.0,
        1.0
      ],
      "min": [
        0.004426104947924614,
        0.0
      ],
      "type": "VEC2"
    },
    {
      "bufferView": 0,
      "componentType": 5125,
      "count": 1944,
      "type": "SCALAR"
    },
    {
      "bufferView": 2,
      "byteOffset": 25680,
      "componentType": 5126,
      "count": 788,
      "max": [
        1128.2310791015625,
        287.39251708984375,
        1578.8515625
      ],
      "min": [
        -1216.5062255859375,
        -3267.426025390625,
        -1760.880859375
      ],
      "type": "VEC3"
    },
    {
      "bufferView": 2,
      "byteOffset": 35136,
      "componentType": 5126,
      "count": 788,
      "max": [
        0.9998817443847656,
        0.9999712705612183,
        0.9561557769775391
      ],
      "min": [
        -0.9998817443847656,
        -0.9999712705612183,
        -0.9561557769775391
      ],
      "type": "VEC3"
    },
    {
      "bufferView": 1,
      "byteOffset": 8560,
      "componentType": 5126,
      "count": 788,
      "max": [
        0.999624490737915,
        0.9958222508430481
      ],
      "min": [
        0.0,
        0.0
      ],
      "type": "VEC2"
    },
    {
      "bufferView": 0,
      "byteOffset": 7776,
      "componentType": 5125,
      "count": 2388,
      "type": "SCALAR"
    },
    {
      "bufferView": 2,
      "byteOffset": 44592,
      "componentType": 5126,
      "count": 308,
      "max": [
        1116.534423828125,
        557.2695922851563,
        1405.139404296875
      ],
      "min": [
        -1183.0350341796875,
        292.71002197265625,
        -1610.1531982421875
      ],
      "type": "VEC3"
    },
    {
      "bufferView": 2,
      "byteOffset": 48288,
      "componentType": 5126,
      "count": 308,
      "max": [
        1.0,
        1.0,
        1.0
      ],
      "min": [
        -1.0,
        -1.0,
        -1.0
      ],
      "type": "VEC3"
    },
    {
      "bufferView": 1,
      "byteOffset": 14864,
      "componentType": 5126,
      "count": 308,
      "max": [
        0.8558103442192078,
        0.8855340480804443
      ],
      "min": [
        0.0,
        0.0
      ],
      "type": "VEC2"
    },
    {
      "bufferView": 0,
      "byteOffset": 17328,
      "componentType": 5125,
      "count": 324,
      "type": "SCALAR"
    },
    {
      "bufferView": 2,
      "byteOffset": 51984,
      "componentType": 5126,
      "count": 1557,
      "max": [
        1225.8564453125,
        1531.0069580078125,
        1759.2275390625
      ],
      "min": [
        -1314.6826171875,
        -743.369873046875,
        -1857.318115234375
      ],
      "type": "VEC3"
    },
    {
      "bufferView": 2,
      "byteOffset": 70668,
      "componentType": 5126,
      "count": 1557,
      "max": [
        0.999961256980896,
        1.0,
        0.9169867634773254
      ],
      "min": [
        -0.9999151229858398,
        -0.47082099318504333,
        -0.9927734732627869
      ],
      "type": "VEC3"
    },
    {
      "bufferView": 1,
      "byteOffset": 17328,
      "componentType": 5126,
      "count": 1557,
      "max": [
        0.8161293268203735,
        0.8603031635284424
      ],
      "min": [
        0.0,
        0.0
      ],
      "type": "VEC2"
    },
    {
      "bufferView": 0,
      "byteOffset": 18624,
      "componentType": 5125,
      "count": 6144,
      "type": "SCALAR"
    }
  ],
  "asset": {
    "extras": {
      "author": "Gunnar Correa (https://sketchfab.com/gunnarcorrea)",
      "license": "CC-BY-4.0 (http://creativecommons.org/licenses/by/4.0/)",
      "source": "https://sketchfab.com/3d-models/hospital-stretcher-a74239ec0dfe454a906c339071855d87",
      "title": "Hospital Stretcher"
    },
    "generator": "Sketchfab-12.68.0",
    "version": "2.0"
  },
  "bufferViews": [
    {
      "buffer": 0,
      "byteLength": 43200,
      "name": "floatBufferViews",
      "target": 34963
    },
    {
      "buffer": 0,
      "byteLength": 29784,
      "byteOffset": 43200,
      "byteStride": 8,
      "name": "floatBufferViews",
      "target": 34962
    },
    {
      "buffer": 0,
      "byteLength": 89352,
      "byteOffset": 72984,
      "byteStride": 12,
      "name": "floatBufferViews",
      "target": 34962
    }
  ],
  "buffers": [
    {
      "byteLength": 162336,
      "uri": "scene.bin"
    }
  ],
  "images": [
    {
      "uri": "textures/MetalEscuro_baseColor.png"
    }
  ],
  "materials": [
    {
      "doubleSided": true,
      "name": "MetalEscuro",
      "pbrMetallicRoughness": {
        "baseColorTexture": {
          "index": 0
        },
        "metallicFactor": 0.5017149390243902,
        "roughnessFactor": 0.10804115853658525
      }
    },
    {
      "doubleSided": true,
      "name": "MetalBranco",
      "pbrMetallicRoughness": {
        "baseColorTexture": {
          "index": 0
        },
        "metallicFactor": 0.5992759146341463,
        "roughnessFactor": 0.16901676829268297
      }
    },
    {
      "doubleSided": true,
      "name": "Colchao",
      "pbrMetallicRoughness": {
        "baseColorTexture": {
          "index": 0
        },
        "metallicFactor": 0.0,
        "roughnessFactor": 0.8239417257
      }
    },
    {
      "doubleSided": true,
      "name": "Lencol",
      "pbrMetallicRoughness": {
        "baseColorTexture": {
          "index": 0
        },
        "metallicFactor": 0.0,
        "roughnessFactor": 0.8239417257
      }
    }
  ],
  "meshes": [
    {
      "name": "Maca_MetalEscuro_0",
      "primitives": [
        {
          "attributes": {
            "NORMAL": 1,
            "POSITION": 0,
            "TEXCOORD_0": 2
          },
          "indices": 3,
          "material": 0,
          "mode": 4
        }
      ]
    },
    {
      "name": "Maca_MetalBranco_0",
      "primitives": [
        {
          "attributes": {
            "NORMAL": 5,
            "POSITION": 4,
            "TEXCOORD_0": 6
          },
          "indices": 7,
          "material": 1,
          "mode": 4
        }
      ]
    },
    {
      "name": "Maca_Colchao_0",
      "primitives": [
        {
          "attributes": {
            "NORMAL": 9,
            "POSITION": 8,
            "TEXCOORD_0": 10
          },
          "indices": 11,
          "material": 2,
          "mode": 4
        }
      ]
    },
    {
      "name": "Maca_Lencol_0",
      "primitives": [
        {
          "attributes": {
            "NORMAL": 13,
            "POSITION": 12,
            "TEXCOORD_0": 14
          },
          "indices": 15,
          "material": 3,
          "mode": 4
        }
      ]
    }
  ],
  "nodes": [
    {
      "children": [
        1
      ],
      "matrix": [
        1.0,
        0.0,
        0.0,
        0.0,
        0.0,
        2.220446049250313e-16,
        -1.0,
        0.0,
        0.0,
        1.0,
        2.220446049250313e-16,
        0.0,
        0.0,
        0.0,
        0.0,
        1.0
      ],
      "name": "Sketchfab_model"
    },
    {
      "children": [
        2
      ],
      "matrix": [
        1.0,
        0.0,
        0.0,
        0.0,
        0.0,
        0.0,
        1.0,
        0.0,
        0.0,
        -1.0,
        0.0,
        0.0,
        0.0,
        0.0,
        0.0,
        1.0
      ],
      "name": "165ba6da888d400d9b5a566ffb1f6172.fbx"
    },
    {
      "children": [
        3
      ],
      "name": "RootNode"
    },
    {
      "children": [
        4,
        5,
        6,
        7
      ],
      "matrix": [
        0.09567008912563324,
        0.0,
        0.0,
        0.0,
        0.0,
        0.029789578169584274,
        0.0,
        0.0,
        0.0,
        0.0,
        0.029789578169584274,
        0.0,
        3.8620848655700684,
        95.71890258789063,
        -478.68841552734375,
        1.0
      ],
      "name": "Maca"
    },
    {
      "mesh": 0,
      "name": "Maca_MetalEscuro_0"
    },
    {
      "mesh": 1,
      "name": "Maca_MetalBranco_0"
    },
    {
      "mesh": 2,
      "name": "Maca_Colchao_0"
    },
    {
      "mesh": 3,
      "name": "Maca_Lencol_0"
    }
  ],
  "samplers": [
    {
      "magFilter": 9729,
      "minFilter": 9987,
      "wrapS": 10497,
      "wrapT": 10497
    }
  ],
  "scene": 0,
  "scenes": [
    {
      "name": "Sketchfab_Scene",
      "nodes": [
        0
      ]
    }
  ],
  "textures": [
    {
      "sampler": 0,
      "source": 0
    }
  ]
}
