{
  "accessors": [
    {
      "bufferView": 2,
      "componentType": 5126,
      "count": 3012,
      "max": [
        104.89847564697266,
        42.11848831176758,
        36.74705505371094
      ],
      "min": [
        -4.576953887939453,
        -49.219146728515625,
        -10.251472473144531
      ],
      "type": "VEC3"
    },
    {
      "bufferView": 2,
      "byteOffset": 36144,
      "componentType": 5126,
      "count": 3012,
      "max": [
        1.0,
        1.0,
        1.0
      ],
      "min": [
        -1.0,
        -1.0,
        -1.0
      ],
      "type": "VEC3"
    },
    {
      "bufferView": 3,
      "componentType": 5126,
      "count": 3012,
      "max": [
        1.0,
        1.0,
        1.0,
        1.0
      ],
      "min": [
        -1.0,
        -1.0,
        -1.0,
        -1.0
      ],
      "type": "VEC4"
    },
    {
      "bufferView": 1,
      "componentType": 5126,
      "count": 3012,
      "max": [
        1.2226358652114868,
        1.0
      ],
      "min": [
        -2.865031703189282e-17,
        -0.0042788926512002945
      ],
      "type": "VEC2"
    },
    {
      "bufferView": 0,
      "componentType": 5125,
      "count": 10431,
      "type": "SCALAR"
    }
  ],
  "asset": {
    "extras": {
      "author": "El (https://sketchfab.com/SharonElSchwaab)",
      "license": "CC-BY-4.0 (http://creativecommons.org/licenses/by/4.0/)",
      "source": "https://sketchfab.com/3d-models/sideboard-hospital-op-ablage-d2a52bbe4c09452fb3c70ad5c0f3677f",
      "title": "Sideboard || Hospital || OP-Ablage"
    },
    "generator": "Sketchfab-12.65.0",
    "version": "2.0"
  },
  "bufferViews": [
    {
      "buffer": 0,
      "byteLength": 41724,
      "name": "floatBufferViews",
      "target": 34963
    },
    {
      "buffer": 0,
      "byteLength": 24096,
      "byteOffset": 41724,
      "byteStride": 8,
      "name": "floatBufferViews",
      "target": 34962
    },
    {
      "buffer": 0,
      "byteLength": 72288,
      "byteOffset": 65820,
      "byteStride": 12,
      "name": "floatBufferViews",
      "target": 34962
    },
    {
      "buffer": 0,
      "byteLength": 48192,
      "byteOffset": 138108,
      "byteStride": 16,
      "name": "floatBufferViews",
      "target": 34962
    }
  ],
  "buffers": [
    {
      "byteLength": 186300,
      "uri": "scene.bin"
    }
  ],
  "images": [
    {
      "uri": "textures/Material_25_normal.png"
    }
  ],
  "materials": [
    {
      "doubleSided": true,
      "name": "Material_25",
      "normalTexture": {
        "index": 0,
        "scale": 0.6340904668669204
      },
      "pbrMetallicRoughness": {
        "baseColorFactor": [
          0.14322479773315405,
          0.14322479773315405,
          0.14322479773315405,
          1.0
        ],
        "metallicFactor": 0.2570945165330966,
        "roughnessFactor": 0.21453045762443906
      }
    }
  ],
  "meshes": [
    {
      "name": "OP_Ablage_Material #25_0",
      "primitives": [
        {
          "attributes": {
            "NORMAL": 1,
            "POSITION": 0,
            "TANGENT": 2,
            "TEXCOORD_0": 3
          },
          "indices": 4,
          "material": 0,
          "mode": 4
        }
      ]
    }
  ],
  "nodes": [
    {
      "children": [
        1
      ],
      "matrix": [
        -2.220446049250313e-16,
        2.220446049250313e-16,
        -1.0,
        0.0,
        -1.0,
        -4.930380657631324e-32,
        2.220446049250313e-16,
        0.0,
        0.0,
        1.0,
        2.220446049250313e-16,
        0.0,
        -2.6387810707092285,
        -2.6038326429353963e-15,
        11.726619720458984,
        1.0
      ],
      "name": "Sketchfab_model"
    },
    {
      "children": [
        2
      ],
      "matrix": [
        1.0,
        0.0,
        0.0,
        0.0,
        0.0,
        0.0,
        1.0,
        0.0,
        0.0,
        -1.0,
        0.0,
        0.0,
        0.0,
        0.0,
        0.0,
        1.0
      ],
      "name": "4bb8f3aa0edf400984b90d6744721f95.fbx"
    },
    {
      "children": [
        3
      ],
      "name": "RootNode"
    },
    {
      "children": [
        4
      ],
      "matrix": [
        0.3200668394565582,
        0.0,
        0.0,
        0.0,
        0.0,
        2.220446049250313e-16,
        -1.0,
        0.0,
        0.0,
        0.8909223675727844,
        1.9782450512657244e-16,
        0.0,
        -11.51091194152832,
        0.7222766876220703,
        3.632436752319336,
        1.0
      ],
      "name": "OP_Ablage"
    },
    {
      "mesh": 0,
      "name": "OP_Ablage_Material #25_0"
    }
  ],
  "samplers": [
    {
      "magFilter": 9729,
      "minFilter": 9987,
      "wrapS": 10497,
      "wrapT": 10497
    }
  ],
  "scene": 0,
  "scenes": [
    {
      "name": "Sketchfab_Scene",
      "nodes": [
        0
      ]
    }
  ],
  "textures": [
    {
      "sampler": 0,
      "source": 0
    }
  ]
}
